<svg width="20" height="19" viewBox="0 0 20 19" fill="none" xmlns="http://www.w3.org/2000/svg">
<path d="M18 0H17V13H18C18.5304 13 19.0391 12.7893 19.4142 12.4142C19.7893 12.0391 20 11.5304 20 11V2C20 1.46957 19.7893 0.960859 19.4142 0.585786C19.0391 0.210714 18.5304 0 18 0ZM2 13H9L7.878 16.368C7.77789 16.6686 7.75061 16.9887 7.79843 17.3018C7.84624 17.615 7.96778 17.9124 8.15302 18.1694C8.33827 18.4264 8.58192 18.6358 8.86392 18.7802C9.14591 18.9246 9.45818 18.9999 9.775 19H10L15 13.562V0H4L0.063 8.649L0 8.942V11C0 11.5304 0.210714 12.0391 0.585786 12.4142C0.960859 12.7893 1.46957 13 2 13Z" fill="#DC3545"/>
</svg>
